<svg data-v-fde0c5aa="" xmlns="http://www.w3.org/2000/svg" viewBox="0 0 95 95"
    class="iconLeft"><!---->
    <defs data-v-fde0c5aa=""><!----></defs>
    <rect data-v-fde0c5aa="" fill="transparent" x="0" y="0" width="300px"
        height="300px" class="logo-background-square"></rect>
    <defs data-v-fde0c5aa=""><!----></defs>
    <g data-v-fde0c5aa="" id="79a9f3ab-d71c-4353-bcfb-8f69419c6e6a"
        fill="#000000">
        <path d=""></path>
    </g>
    <defs data-v-fde0c5aa="">
        <linearGradient data-v-fde0c5aa="" gradientTransform="rotate(25)"
            id="11aff2d2-2eea-4c64-9eec-c5c6a0fddc7a" x1="0%" y1="0%" x2="100%"
            y2="0%">
            <stop data-v-fde0c5aa="" offset="0%" stop-color="#01695A"
                stop-opacity="1"></stop>
            <stop data-v-fde0c5aa="" offset="100%" stop-color="#2CC26F"
                stop-opacity="1"></stop>
        </linearGradient>
    </defs>
    <g data-v-fde0c5aa="" id="b7a7730e-fc77-4dd9-8bcc-55cad9328ff9"
        stroke="none" fill="url(#11aff2d2-2eea-4c64-9eec-c5c6a0fddc7a)">
        <path
            d="M36 2h24v12H36V2zM48 36.376c-5.728 0-10.468 4.172-11.42 9.624h22.84c-.952-5.452-5.691-9.624-11.42-9.624z">
        </path>
        <path
            d="M32.58 46c.996-7.664 7.492-13.624 15.42-13.624S62.428 38.336 63.42 46H84V4c0-1.1-.9-2-2-2H64v14c0 1.1-.9 2-2 2H34c-1.104 0-2-.9-2-2V2H14c-1.104 0-2 .9-2 2v42h20.58zM48 59.624c5.729 0 10.468-4.172 11.42-9.624H36.576c.956 5.452 5.696 9.624 11.424 9.624z">
        </path>
        <path
            d="M63.42 50c-1 7.664-7.492 13.624-15.42 13.624S33.572 57.664 32.58 50H12v42c0 1.1.896 2 2 2h18V80c0-1.1.896-2 2-2h28c1.1 0 2 .9 2 2v14h18c1.1 0 2-.9 2-2V50H63.42z">
        </path>
        <path d="M36 82h24v12H36V82z"></path>
    </g><!---->
</svg>