<svg data-v-fde0c5aa="" xmlns="http://www.w3.org/2000/svg"
    viewBox="40 50 300 130" class="iconLeft"><!---->
    <defs data-v-fde0c5aa=""><!----></defs>
    <rect data-v-fde0c5aa="" fill="transparent" x="0" y="0" width="150px"
        height="150px" class="logo-background-square"></rect>
    <defs data-v-fde0c5aa=""><!----></defs>
    <g data-v-fde0c5aa="" id="587328a1-ac9e-42c3-9db6-4006666a3141"
        fill="#000000"
        transform="matrix(2.856439909849802,0,0,2.856439909849802,89.35627022393487,129.20511753801685)">
        <path
            d="M6.09 8.68L8.99 8.68C8.81 9.52 8.43 10.20 7.85 10.71C7.28 11.22 6.55 11.48 5.67 11.48C4.62 11.48 3.73 11.13 3.02 10.43C2.31 9.73 1.96 8.82 1.96 7.70C1.96 6.58 2.31 5.67 3.02 4.97C3.73 4.27 4.62 3.92 5.67 3.92C6.35 3.92 6.98 4.07 7.55 4.38C8.13 4.68 8.57 5.09 8.88 5.61L9.94 4.62C9.07 3.22 7.65 2.52 5.67 2.52C4.16 2.52 2.91 3.00 1.91 3.97C0.92 4.93 0.42 6.18 0.42 7.70C0.42 9.22 0.92 10.46 1.91 11.43C2.91 12.40 4.16 12.88 5.67 12.88C7.21 12.88 8.42 12.39 9.31 11.40C10.20 10.41 10.64 9.13 10.64 7.56L10.64 7.28L6.09 7.28ZM11.48 9.38C11.48 10.40 11.82 11.21 12.50 11.82C13.17 12.43 14.01 12.74 15.02 12.74C16.03 12.74 16.87 12.43 17.55 11.82C18.23 11.21 18.56 10.40 18.56 9.38C18.56 8.36 18.23 7.55 17.55 6.94C16.87 6.33 16.03 6.02 15.02 6.02C14.01 6.02 13.17 6.33 12.50 6.94C11.82 7.55 11.48 8.36 11.48 9.38ZM12.96 9.38C12.96 8.75 13.16 8.26 13.54 7.90C13.92 7.53 14.42 7.35 15.02 7.35C15.63 7.35 16.12 7.53 16.51 7.90C16.89 8.26 17.08 8.75 17.08 9.38C17.08 10.01 16.89 10.50 16.51 10.86C16.12 11.23 15.63 11.41 15.02 11.41C14.42 11.41 13.92 11.23 13.54 10.86C13.16 10.50 12.96 10.01 12.96 9.38ZM20.54 8.01C21.18 7.54 21.84 7.31 22.53 7.31C23.43 7.31 23.88 7.56 23.88 8.05L23.88 8.90C23.42 8.65 22.86 8.53 22.22 8.53C21.40 8.53 20.71 8.72 20.16 9.11C19.61 9.51 19.33 10.06 19.33 10.78C19.33 11.43 19.56 11.92 20.02 12.25C20.48 12.58 21.03 12.74 21.69 12.74C22.18 12.74 22.62 12.65 23.01 12.46C23.40 12.27 23.69 12.01 23.88 11.68L23.88 12.60L25.35 12.60L25.35 7.98C25.35 7.32 25.10 6.82 24.58 6.50C24.07 6.18 23.38 6.02 22.53 6.02C21.61 6.02 20.77 6.30 19.99 6.87ZM20.75 10.64C20.75 10.36 20.90 10.12 21.21 9.90C21.52 9.70 21.92 9.59 22.41 9.59C22.95 9.59 23.44 9.67 23.88 9.84L23.88 10.08C23.88 10.65 23.74 11.05 23.44 11.27C23.15 11.49 22.70 11.61 22.11 11.61C21.20 11.61 20.75 11.28 20.75 10.64ZM27.10 1.68L27.10 12.60L28.57 12.60L28.57 1.68ZM30.18 4.20L34.79 4.20L29.69 12.60L36.76 12.60L36.76 11.20L32.16 11.20L37.25 2.80L30.18 2.80ZM37.60 9.38C37.60 10.40 37.94 11.21 38.62 11.82C39.30 12.43 40.14 12.74 41.15 12.74C42.15 12.74 43.00 12.43 43.67 11.82C44.35 11.21 44.69 10.40 44.69 9.38C44.69 8.36 44.35 7.55 43.67 6.94C43.00 6.33 42.15 6.02 41.15 6.02C40.14 6.02 39.30 6.33 38.62 6.94C37.94 7.55 37.60 8.36 37.60 9.38ZM39.09 9.38C39.09 8.75 39.28 8.26 39.66 7.90C40.04 7.53 40.54 7.35 41.15 7.35C41.75 7.35 42.25 7.53 42.63 7.90C43.01 8.26 43.20 8.75 43.20 9.38C43.20 10.01 43.01 10.50 42.63 10.86C42.25 11.23 41.75 11.41 41.15 11.41C40.54 11.41 40.04 11.23 39.66 10.86C39.28 10.50 39.09 10.01 39.09 9.38ZM47.49 7.15L47.49 6.16L46.02 6.16L46.02 12.60L47.49 12.60L47.49 8.96C47.49 8.51 47.65 8.13 47.98 7.82C48.32 7.51 48.70 7.35 49.13 7.35C49.54 7.35 49.84 7.45 50.05 7.64C50.26 7.83 50.36 8.18 50.36 8.68L50.36 12.60L51.83 12.60L51.83 8.54C51.83 7.63 51.63 6.98 51.23 6.59C50.84 6.21 50.27 6.02 49.55 6.02C48.66 6.02 47.97 6.40 47.49 7.15ZM58.17 8.69L54.61 8.69C54.68 8.26 54.89 7.92 55.25 7.66C55.61 7.41 56.02 7.28 56.49 7.28C57.48 7.28 58.04 7.75 58.17 8.69ZM54.59 9.73L59.71 9.73C59.73 9.61 59.74 9.45 59.74 9.25C59.74 8.25 59.44 7.45 58.86 6.88C58.27 6.31 57.48 6.02 56.49 6.02C55.48 6.02 54.66 6.33 54.03 6.96C53.40 7.59 53.09 8.40 53.09 9.38C53.09 10.38 53.39 11.19 53.99 11.81C54.59 12.43 55.43 12.74 56.49 12.74C57.90 12.74 58.93 12.24 59.58 11.24L58.48 10.56C58.12 11.13 57.46 11.41 56.49 11.41C55.98 11.41 55.55 11.27 55.20 10.98C54.86 10.69 54.65 10.27 54.59 9.73Z">
        </path>
    </g>
    <defs data-v-fde0c5aa="">
        <linearGradient data-v-fde0c5aa="" gradientTransform="rotate(25)"
            id="a5d1c543-e9d3-4f08-a7b1-d9a287600f22" x1="0%" y1="0%" x2="100%"
            y2="0%">
            <stop data-v-fde0c5aa="" offset="0%" stop-color="#01695A"
                stop-opacity="1"></stop>
            <stop data-v-fde0c5aa="" offset="100%" stop-color="#2CC26F"
                stop-opacity="1"></stop>
        </linearGradient>
    </defs>
    <g data-v-fde0c5aa="" id="949a4870-26c7-45b6-be1f-185907888daf"
        stroke="none" fill="url(#a5d1c543-e9d3-4f08-a7b1-d9a287600f22)"
        transform="matrix(0.5216107572635073,0,0,0.5216107572635073,33.74067091283791,124.96268365135165)">
        <path
            d="M36 2h24v12H36V2zM48 36.376c-5.728 0-10.468 4.172-11.42 9.624h22.84c-.952-5.452-5.691-9.624-11.42-9.624z">
        </path>
        <path
            d="M32.58 46c.996-7.664 7.492-13.624 15.42-13.624S62.428 38.336 63.42 46H84V4c0-1.1-.9-2-2-2H64v14c0 1.1-.9 2-2 2H34c-1.104 0-2-.9-2-2V2H14c-1.104 0-2 .9-2 2v42h20.58zM48 59.624c5.729 0 10.468-4.172 11.42-9.624H36.576c.956 5.452 5.696 9.624 11.424 9.624z">
        </path>
        <path
            d="M63.42 50c-1 7.664-7.492 13.624-15.42 13.624S33.572 57.664 32.58 50H12v42c0 1.1.896 2 2 2h18V80c0-1.1.896-2 2-2h28c1.1 0 2 .9 2 2v14h18c1.1 0 2-.9 2-2V50H63.42z">
        </path>
        <path d="M36 82h24v12H36V82z"></path>
    </g><!---->
</svg>